<?xml version="1.0" encoding="utf-8"?>
<!-- Generator: Adobe Illustrator 23.0.1, SVG Export Plug-In . SVG Version: 6.00 Build 0)  -->
<svg version="1.1" xmlns="http://www.w3.org/2000/svg" xmlns:xlink="http://www.w3.org/1999/xlink" x="0px" y="0px"
	 viewBox="0 0 1100 500" style="enable-background:new 0 0 1100 500;" xml:space="preserve">
<style type="text/css">
	.st0{fill:#EDEDED;}
	.st1{fill:#2C374C;}
	.st2{fill:#FFFFFF;}
	.st3{clip-path:url(#SVGID_2_);}
	.st4{fill:#F6F6F6;}
	.st5{fill:none;}
	.st6{fill:none;stroke:#FFFFFF;stroke-linecap:round;stroke-linejoin:round;stroke-miterlimit:10;}
	.st7{fill:#D2D6DB;}
	.st8{fill:#878A8E;}
	.st9{fill:#000100;}
	.st10{fill:#ACB4BE;}
	.st11{fill:none;stroke:#95C11F;stroke-miterlimit:10;}
	.st12{opacity:0.4;}
	.st13{fill:none;stroke:#2C374C;stroke-linecap:round;stroke-linejoin:round;stroke-miterlimit:10;}
	.st14{fill:#EFEFF3;}
	.st15{opacity:0.5;fill:#2C374C;}
	.st16{opacity:0.2;fill:#2C374C;}
	.st17{fill:#DADADA;}
	.st18{fill:#95C11F;}
	.st19{clip-path:url(#SVGID_6_);}
	.st20{clip-path:url(#SVGID_8_);}
	.st21{clip-path:url(#SVGID_10_);}
	.st22{clip-path:url(#SVGID_12_);}
	.st23{fill:none;stroke:#ACAFB5;stroke-linecap:round;stroke-linejoin:round;stroke-miterlimit:10;}
	.st24{clip-path:url(#SVGID_14_);}
	.st25{clip-path:url(#SVGID_16_);}
	.st26{clip-path:url(#SVGID_18_);}
	.st27{clip-path:url(#SVGID_20_);}
	.st28{fill:none;stroke:#FFFFFF;stroke-width:6;stroke-miterlimit:10;}
	.st29{fill-rule:evenodd;clip-rule:evenodd;fill:#FFFFFF;}
	.st30{fill-rule:evenodd;clip-rule:evenodd;fill:#04FB0A;}
	.st31{opacity:0.45;fill:#FFFFFF;}
	.st32{fill:#FF8E00;}
	.st33{fill:none;stroke:#818793;stroke-width:4;stroke-miterlimit:10;}
	.st34{fill:none;stroke:#818793;stroke-width:6;stroke-miterlimit:10;}
	.st35{fill:#DEDEE0;}
	.st36{fill:#C6C6C6;}
	.st37{clip-path:url(#SVGID_22_);}
	.st38{fill:none;stroke:#2C374C;stroke-width:2;stroke-linecap:round;stroke-linejoin:round;stroke-miterlimit:10;}
	.st39{fill:none;stroke:#FFFFFF;stroke-width:2;stroke-linecap:round;stroke-linejoin:round;stroke-miterlimit:10;}
	.st40{fill:none;stroke:#ACAFB5;stroke-width:2;stroke-linecap:round;stroke-linejoin:round;stroke-miterlimit:10;}
	.st41{opacity:0.3;fill:none;stroke:#FFFFFF;stroke-width:1.2;stroke-miterlimit:10;}
	.st42{fill:none;stroke:#629BFF;stroke-miterlimit:10;}
	.st43{opacity:0.5;}
	.st44{fill:#629BFF;}
	.st45{fill:#ED1C40;}
	.st46{opacity:0.6;}
	.st47{fill:#F19106;}
	.st48{fill:url(#XMLID_63_);}
	.st49{fill:none;stroke:#5960E9;stroke-width:0.2083;stroke-miterlimit:10;}
	.st50{fill:url(#XMLID_64_);}
	.st51{fill:none;stroke:#E6E6E6;stroke-width:0.2083;stroke-miterlimit:10;}
	.st52{fill:url(#XMLID_65_);}
	.st53{fill:none;stroke:#ED1C24;stroke-width:0.2083;stroke-miterlimit:10;}
	.st54{clip-path:url(#SVGID_24_);}
	.st55{fill:#DA5640;}
	.st56{clip-path:url(#SVGID_26_);}
	.st57{fill:#4997D7;}
	.st58{fill:#50BA9D;}
	.st59{fill:none;stroke:#FFFFFF;stroke-width:3;stroke-miterlimit:10;}
	.st60{clip-path:url(#SVGID_28_);}
	.st61{clip-path:url(#SVGID_30_);}
	.st62{fill:none;stroke:#FFFFFF;stroke-miterlimit:10;}
	.st63{fill:none;stroke:#95C11F;stroke-linecap:round;stroke-linejoin:round;stroke-miterlimit:10;}
	.st64{fill:url(#SVGID_31_);}
	.st65{clip-path:url(#SVGID_33_);}
	.st66{fill:none;stroke:#FFFFFF;stroke-width:2;stroke-linecap:square;stroke-linejoin:round;stroke-miterlimit:10;}
	.st67{fill:none;stroke:#1D1D1B;stroke-miterlimit:10;}
	.st68{fill:none;stroke:#95C11F;stroke-width:4;stroke-miterlimit:10;}
	.st69{fill:#394E55;}
	.st70{fill:#0EAADA;}
	.st71{fill:#27B8EB;}
	.st72{fill:#048CB9;}
	.st73{fill:#009BC6;}
	.st74{fill:#00ADD4;}
	.st75{fill:#33BDEA;}
	.st76{fill:#D5ECF0;}
	.st77{fill:#C0DCE1;}
	.st78{fill-rule:evenodd;clip-rule:evenodd;fill:#95C11F;}
	.st79{fill:none;stroke:#E5E5E5;stroke-miterlimit:10;}
	.st80{fill:#E5E5E5;}
	.st81{clip-path:url(#SVGID_35_);}
	.st82{clip-path:url(#SVGID_37_);}
	.st83{fill:url(#SVGID_38_);}
	.st84{fill:none;stroke:#2C374C;stroke-width:2;stroke-linecap:round;stroke-miterlimit:10;}
	.st85{clip-path:url(#SVGID_40_);}
	.st86{clip-path:url(#SVGID_42_);}
	.st87{clip-path:url(#SVGID_44_);}
	.st88{fill:none;stroke:#FFFFFF;stroke-width:2;stroke-linecap:round;stroke-miterlimit:10;}
	.st89{clip-path:url(#SVGID_46_);}
	.st90{clip-path:url(#SVGID_48_);}
	.st91{clip-path:url(#SVGID_50_);}
	.st92{fill:url(#SVGID_51_);}
	.st93{clip-path:url(#SVGID_53_);}
	.st94{clip-path:url(#SVGID_55_);}
	.st95{clip-path:url(#SVGID_57_);}
	.st96{fill:url(#SVGID_58_);}
	.st97{fill:#1D1D1B;}
	.st98{fill-rule:evenodd;clip-rule:evenodd;fill:#1D1D1B;}
	.st99{opacity:0.3;fill:none;stroke:#FFFFFF;stroke-width:1.9872;stroke-miterlimit:10;}
	.st100{fill:none;stroke:#629BFF;stroke-width:1.656;stroke-miterlimit:10;}
	.st101{fill:#F7F7F7;}
	.st102{fill:none;stroke:#A7A7AA;stroke-miterlimit:10;}
	.st103{fill:#F29100;}
	.st104{fill:url(#XMLID_66_);}
	.st105{fill:url(#XMLID_67_);}
	.st106{fill:url(#XMLID_68_);}
	.st107{fill:none;stroke:#2C374C;stroke-width:3;stroke-miterlimit:10;}
	.st108{fill:none;stroke:#A7A7AA;stroke-width:1.656;stroke-miterlimit:10;}
	.st109{fill:url(#XMLID_69_);}
	.st110{fill:none;stroke:#5960E9;stroke-width:0.345;stroke-miterlimit:10;}
	.st111{fill:url(#XMLID_70_);}
	.st112{fill:none;stroke:#E6E6E6;stroke-width:0.345;stroke-miterlimit:10;}
	.st113{fill:url(#XMLID_71_);}
	.st114{fill:none;stroke:#ED1C24;stroke-width:0.345;stroke-miterlimit:10;}
	.st115{fill:none;stroke:#2C374C;stroke-width:4.968;stroke-miterlimit:10;}
	.st116{fill:none;stroke:#FFFFFF;stroke-width:9.936;stroke-miterlimit:10;}
	.st117{clip-path:url(#SVGID_60_);}
	.st118{fill:none;stroke:#2C374C;stroke-width:3.312;stroke-linecap:round;stroke-linejoin:round;stroke-miterlimit:10;}
	.st119{fill:#2C374C;stroke:#2C374C;stroke-width:3.312;stroke-linecap:round;stroke-linejoin:round;stroke-miterlimit:10;}
	.st120{fill:none;stroke:#FFFFFF;stroke-width:3.312;stroke-linecap:round;stroke-linejoin:round;stroke-miterlimit:10;}
	.st121{fill:none;stroke:#ACAFB5;stroke-width:3.312;stroke-linecap:round;stroke-linejoin:round;stroke-miterlimit:10;}
	.st122{fill:#7F8183;}
	.st123{fill:none;stroke:#818793;stroke-width:6.624;stroke-miterlimit:10;}
	.st124{fill:none;stroke:#818793;stroke-width:9.936;stroke-miterlimit:10;}
	.st125{clip-path:url(#SVGID_62_);}
	.st126{clip-path:url(#SVGID_64_);}
</style>
<g id="fond">
</g>
<g id="divers">
</g>
<g id="logo">
</g>
<g id="nav">
</g>
<g id="Calque_7">
</g>
<g id="Calque_8">
</g>
<g id="Calque_9">
</g>
<g id="specs">
	<rect class="st1" width="1100" height="500"/>
</g>
<g id="icones">
	<g>
		<g>
			<polygon class="st2" points="347.8,127.9 308.1,127.9 265,171 221.8,127.9 182,127.9 245,191 182.5,253.4 222.4,253.4 265,210.8 
				307.6,253.4 347.4,253.4 284.8,191 			"/>
			<path class="st2" d="M409.9,126.3c-35.6,0-65.2,28.8-65.2,64.4c0,35.8,29.3,64.4,65.1,64.4c14.6,0,29.8-5.7,41.1-15l11.3,13.3
				h10.8l-16.5-17.8c11.6-13.3,18.3-27.8,18.3-45.4C474.8,155.1,445,126.3,409.9,126.3z M450.6,229.6L425.2,202h-11.3l31.3,32.4
				c-9.8,7.8-22.3,13.1-34.9,13.1c-31.6,0-57.6-25.5-57.6-56.9c0-31,26.1-56.9,57.2-56.9c32.1,0,56.9,26.5,56.9,57.9
				C466.8,206.6,460.6,218.8,450.6,229.6z"/>
			<g>
				<path class="st2" d="M584.8,161.2c0-10.7-3.7-20.6-12.6-27c-8.5-6.2-18.5-6.3-28.6-6.3h-48.8v125.5h8V194h37.2l40.9,59.4h9.2
					L548.9,194C569.7,194.3,584.8,183,584.8,161.2z M502.7,186.5v-51.1h38.4c7.3,0,15.8-0.3,22.5,2.8c9,4,13.3,13.3,13.3,22.6
					c0,7.5-2.8,15-8.8,19.8c-6.3,5.5-14.1,5.8-22,5.8H502.7z"/>
				<path class="st2" d="M630.1,248.1c-18.1,0-31.6-15.8-31.6-33.3s13.6-32.9,31.8-32.9c11,0,19.8,4.5,27.1,12.5v-10
					c-7.7-6.5-16.8-9.5-26.8-9.5c-22.6,0-39.6,17.6-39.6,39.9c0,22.5,16.6,40.3,39.4,40.3c10.3,0,20.1-3.8,28-10.6v-10.2
					C651.4,242.8,641.1,248.1,630.1,248.1z"/>
				<path class="st2" d="M707,174.9c-22.3,0-39.9,18.1-39.9,40.3c0,21.8,17.8,39.9,39.9,39.9c22.6,0,40.4-17.3,40.4-40.1
					S729.6,174.9,707,174.9z M706.5,248.1c-18.1,0-32-15.5-32-32.9c0-17.8,13.6-33.3,32-33.3c19,0,33.4,14.3,33.4,33.3
					C739.9,233.8,725.3,248.1,706.5,248.1z"/>
				<path class="st2" d="M825.6,189.8h-0.3c-6.5-9.7-17.8-15-29.6-15c-23.1,0-37.6,17.1-37.6,39.6c0,22.5,14.6,40.6,37.9,40.6
					c11.3,0,23.6-5.7,29.3-15.5h0.3v13.8h7.5V116.1h-7.5V189.8z M795.9,248.1c-18.6,0-30.3-16-30.3-33.6c0-16.6,12.1-32.6,29.8-32.6
					c18.6,0,30.8,14,30.8,31.8C826.1,232.1,815.5,248.1,795.9,248.1z"/>
				<path class="st2" d="M882.1,248.1c-17.8,0-31.3-13-30.8-32.4H918c0.2-22.1-13.6-40.8-36.9-40.8c-22.5,0-37.3,18.5-37.3,39.9
					c0,21.8,14.5,40.3,37.3,40.3c15.1,0,27.5-7.5,34.4-20.8l-6.3-3.7C903.7,240.9,894,248.1,882.1,248.1z M881.2,181.8
					c15.8,0,27.5,12.6,29.3,26.8h-59.2C852.6,194.2,865.6,181.8,881.2,181.8z"/>
			</g>
		</g>
		<g>
			<g>
				<g>
					<path class="st2" d="M589.6,328l-24.1,0c1.6-5.5,6.4-9.1,11.8-9.1C583.6,318.9,587.9,322.1,589.6,328 M565.2,336.2h35.5
						c0-0.7,0.1-1.5,0.1-2.2c0-5.9-1.2-10.6-4.2-14.5c-4.6-6.3-11.6-9.9-19.2-9.9c-6.1,0-12,2.6-16.5,7.4c-4.1,4.4-6.3,9.9-6.3,16.1
						c0,6,2.4,12,6.6,16.3c4.5,4.6,10.1,6.9,16.6,6.9c9.8,0,17.6-5.5,21.4-15.2l-11.1,0c-2.1,3.5-6,5.5-10.6,5.5
						C570.5,346.5,565.8,342.6,565.2,336.2"/>
					<path class="st2" d="M616.9,333.2c0-7.6,5.5-13.3,12.7-13.3c7.2,0,12.9,6,12.9,13.1c0,7.3-5.5,13-13.4,13
						C622.5,346.1,616.9,340.5,616.9,333.2 M616.5,314.4v-17.9h-10.2v58.6h10.2v-3.6c4.1,3.2,8.6,4.7,13.8,4.7
						c5.6,0,10.7-1.8,14.5-5.2c5.4-4.6,8.3-11.1,8.3-18.2c0-6.5-2.6-12.8-7.5-17.2c-4.1-3.9-9.5-5.9-15.3-5.9
						C624.8,309.7,620.4,311.1,616.5,314.4"/>
					<path class="st2" d="M660.2,310.9h9.9v44.3h-9.9V310.9z M660.2,296.5h9.9v9.8h-9.9V296.5z"/>
					<path class="st2" d="M687.3,332.6c0-7.2,5.8-12.7,12.6-12.7c6.5,0,12.4,5.8,12.4,13.2c0,6.8-5.9,12.6-12.3,12.6
						C693.1,345.7,687.3,340.3,687.3,332.6 M713.6,355.1h9.9l0-44.3h-9.9v5.3c-3-4.3-7.6-6.4-14-6.4c-6.7,0-11.9,2.1-16.4,6.8
						c-4.1,4.3-6.3,10-6.3,16.2c0,13.2,9.8,23.3,23,23.3c6.8,0,11.3-2,13.8-6.4L713.6,355.1z"/>
				</g>
				<polygon class="st2" points="464.1,374.5 491.3,374.5 520.5,345.4 549.6,374.5 576.8,374.5 534.1,331.8 577.2,288.7 
					549.9,288.7 520.5,318.2 491,288.7 463.8,288.7 506.9,331.8 				"/>
			</g>
			<g class="st43">
				<path class="st2" d="M419.4,350.2c0.1-0.1,0.4-0.1,0.9,0c0.4,0.2,0.9,0.4,1.3,0.8c0.5,0.4,0.9,0.8,1.2,1.2
					c0.4,0.5,0.5,0.9,0.5,1.3c0,0.4-0.3,1.3-0.8,2.5c-0.6,1.2-1.4,2.6-2.6,4.1c-1.2,1.5-2.7,3.2-4.6,4.9c-1.8,1.7-4,3.2-6.6,4.6
					c-2.5,1.4-5.5,2.6-8.8,3.5c-3.3,0.9-7.1,1.4-11.2,1.4h-0.1h-0.1h-0.1c-1.1,0-2.1-0.2-3-0.6c-0.9-0.4-1.6-0.8-2-1.3
					c-0.5-0.5-0.7-0.9-0.6-1.3c0-0.4,0.5-0.6,1.2-0.6c2.2,0,4.5-0.8,6.9-2.4c2.4-1.6,4.7-3.7,6.8-6.3c2.1-2.6,3.8-5.5,5.1-8.8
					c1.4-3.3,2-6.6,2-10c0-0.8-0.1-1.6-0.3-2.4c-0.2-0.8-0.7-1.2-1.3-1.2c-1.9,0-3.7,0.6-5.6,1.7c-1.9,1.1-3.7,2.5-5.4,4.3
					c-1.7,1.8-3.3,3.7-4.7,5.9s-2.6,4.3-3.5,6.5c-0.5,1.8-1,3.5-1.3,5.1c-0.3,1.6-0.5,3-0.5,4.2c0,1.4,0,2.5,0.1,3.2
					s0.2,1.3,0.3,1.8s0.2,0.8,0.3,1c0.1,0.2,0.1,0.6,0.1,0.9c0,0.3-0.3,0.4-1,0.1c-0.7-0.3-1.4-0.9-2.2-1.7c-0.8-0.9-1.6-2-2.2-3.4
					c-0.7-1.4-1-3-1-5c0-1.3,0.3-3.1,0.9-5.2c0.6-2.1,1.3-4.5,2.3-7.2c0.9-2.6,2-5.4,3.2-8.3c1.2-2.9,2.4-5.8,3.6-8.7
					c1.2-2.9,2.5-5.7,3.6-8.4c1.2-2.7,2.2-5.2,3.2-7.4c0.9-2.2,1.7-4,2.3-5.5c0.6-1.5,0.9-2.4,0.9-2.9c0-0.7,0.3-0.9,0.9-0.7
					c0.6,0.2,1.2,0.6,1.9,1.2c0.7,0.6,1.3,1.3,1.9,2.1c0.6,0.8,0.9,1.5,0.9,1.9c0,0.1-0.3,0.8-0.9,2c-0.6,1.2-1.3,2.8-2.3,4.8
					c-0.9,2-2,4.2-3.2,6.8c-1.2,2.5-2.4,5.2-3.6,8.1c1.2-0.8,2.3-1.4,3.5-1.8c1.2-0.4,2.4-0.6,3.6-0.6c1.1,0,2.2,0.3,3.5,0.9
					c1.3,0.6,2.4,1.4,3.5,2.4c1.1,1,1.9,2.2,2.7,3.6c0.7,1.3,1.1,2.7,1.1,4.2c0,1.7-0.2,3.5-0.6,5.3c-0.4,1.8-1,3.6-1.7,5.3
					c-0.7,1.7-1.6,3.4-2.6,5c-1,1.6-2,3.2-3.2,4.6c1.6-0.1,3.1-0.6,4.5-1.4c1.4-0.8,2.8-1.7,4-2.7c1.2-1.1,2.3-2.2,3.3-3.4
					c1-1.2,1.9-2.4,2.6-3.5c0.7-1.1,1.4-2.1,1.9-2.9C418.7,351,419.1,350.4,419.4,350.2z M382.4,347.5c1.1-3,2.4-6.1,3.8-9.3
					c0.7-1.6,1.3-3.2,2-4.7c0.6-1.6,1.3-3.1,2-4.6c0.7-1.5,1.3-2.9,1.8-4.3c0.6-1.4,1.1-2.6,1.5-3.8c1-2.3,1.8-4.3,2.3-5.8
					c0.1-0.4,0.2-0.7,0.3-0.9c0.1-0.2,0.2-0.5,0.3-0.7c0-0.1,0-0.2,0-0.3c0-0.1,0-0.1,0-0.2c0,0,0-0.1,0.1-0.1
					c0,0.2-0.1,0.4-0.2,0.6c-0.1,0.2-0.2,0.4-0.3,0.7c-0.1,0.3-0.2,0.6-0.4,1c-0.5,1.4-1.3,3.3-2.4,5.7c-0.5,1.2-1.1,2.5-1.7,3.8
					c-0.6,1.3-1.2,2.8-1.9,4.2c-0.7,1.5-1.3,3.1-2,4.6c-0.7,1.5-1.3,3.1-2,4.7c-0.7,1.6-1.3,3.2-1.9,4.8c-0.6,1.6-1.2,3.1-1.9,4.6
					c-0.3,0.8-0.6,1.5-0.8,2.2c-0.3,0.7-0.5,1.4-0.8,2.1c-0.2,0.7-0.5,1.4-0.7,2c-0.2,0.6-0.4,1.3-0.7,1.9c-0.2,0.6-0.4,1.2-0.5,1.8
					c-0.2,0.6-0.3,1.1-0.4,1.6c-0.1,0.5-0.3,1-0.3,1.4c-0.1,0.4-0.2,0.8-0.3,1.2c-0.1,0.5-0.1,0.8-0.1,1c0,0.1-0.1,0.3-0.1,0.4
					c0,0.1,0,0.2,0,0.3v0.6v-0.6c0-0.1,0.1-0.2,0.1-0.3c0-0.1,0-0.3,0.1-0.4c0-0.1,0-0.3,0-0.4c0-0.1,0.1-0.3,0.1-0.5
					c0.1-0.9,0.4-1.7,0.7-2.7c0.1-0.2,0.2-0.5,0.2-0.8c0-0.3,0.1-0.5,0.2-0.8l0.6-1.7c0.4-1.2,0.8-2.6,1.4-3.9
					C381.2,350.4,381.8,349,382.4,347.5z M379.7,356.9c0.1-0.3,0.2-0.6,0.3-0.8c0.1-0.2,0.1-0.5,0.2-0.6c0-0.2,0.1-0.4,0.1-0.6
					c0,0-0.1,0.1-0.1,0.1c0,0-0.1,0.1-0.1,0.2c0,0.1,0,0.2-0.1,0.3c-0.1,0.1-0.2,0.3-0.3,0.6c-0.1,0.2-0.2,0.5-0.3,0.8
					c-0.1,0.3-0.2,0.6-0.4,0.9c-0.1,0.3-0.3,0.7-0.4,1.1c0,0.2-0.1,0.4-0.1,0.6c0,0.2-0.1,0.4-0.1,0.6c-0.1,0.3-0.2,0.7-0.3,1.2
					c-0.2,0.8-0.4,1.6-0.4,2.4c-0.1,0.4-0.1,0.8-0.1,1.1s0,0.7,0,1c0,0.1,0,0.3,0,0.4c0,0.1,0,0.3,0,0.4c0,0.1,0,0.2,0,0.3
					c0,0.1,0,0.2,0,0.3c0,0.1,0,0.2,0,0.2c0,0,0,0.1,0,0.1c0,0,0,0.1,0.1,0.1c0,0-0.1-0.1-0.1-0.1v-0.4c0-0.2-0.1-0.4-0.1-0.7
					c0-0.3,0-0.5,0-0.8c0-0.3,0.1-0.7,0.1-1c0-0.3,0.1-0.7,0.1-1.1l0.4-2.4c0-0.2,0.1-0.5,0.1-0.6c0-0.2,0.1-0.4,0.1-0.6
					c0-0.2,0.1-0.4,0.1-0.6c0-0.2,0.1-0.4,0.1-0.6c0.1-0.4,0.2-0.7,0.3-1.1C379.5,357.5,379.6,357.2,379.7,356.9z M400.6,335.2
					l-0.1-0.1c0,0-0.2,0-0.4-0.1c-0.1,0-0.2-0.1-0.3-0.1c-0.1,0-0.3,0-0.4-0.1h-0.9c-0.2,0-0.5,0.1-1,0.2c-0.2,0-0.4,0.1-0.5,0.1
					c-0.2,0-0.4,0.1-0.6,0.1c-0.2,0.1-0.4,0.2-0.5,0.3c-0.2,0.1-0.3,0.2-0.5,0.3c-0.2,0.1-0.4,0.2-0.6,0.3c-0.2,0.1-0.3,0.2-0.5,0.3
					c-0.7,0.4-1.4,0.9-2.1,1.4c-0.1,0.1-0.3,0.2-0.4,0.3c-0.1,0.1-0.3,0.3-0.4,0.4c-0.2,0.1-0.4,0.4-0.7,0.6c-0.6,0.6-0.9,1-1.1,1.2
					c-0.1,0.1-0.2,0.2-0.2,0.2c0,0-0.1,0.1-0.1,0.1l-0.1,0.1l0.1-0.1c0,0,0.1-0.1,0.1-0.1c0,0,0.1-0.1,0.2-0.2
					c0.2-0.2,0.4-0.3,0.5-0.4c0.1-0.1,0.4-0.3,0.6-0.6c0.1-0.1,0.4-0.3,0.8-0.6c0.1-0.1,0.3-0.2,0.5-0.3c0.2-0.1,0.3-0.3,0.5-0.4
					c0.1-0.1,0.3-0.2,0.5-0.3c0.2-0.1,0.3-0.2,0.5-0.3c0.1-0.1,0.3-0.2,0.5-0.3c0.2-0.1,0.3-0.2,0.5-0.3c0.2-0.1,0.4-0.2,0.5-0.3
					c0.2-0.1,0.4-0.2,0.6-0.3c0.2-0.1,0.4-0.2,0.5-0.3c0.2-0.1,0.3-0.2,0.5-0.3c0.2-0.1,0.4-0.2,0.5-0.2c0.1,0,0.3-0.1,0.5-0.1
					c0.3-0.1,0.6-0.2,1-0.3c0.1,0,0.3,0,0.4,0c0.1,0,0.3,0,0.4,0h0.6l0.4,0.1H400.6z M400.5,359.9c0.1-0.2,0.2-0.4,0.3-0.5
					c0.1-0.1,0.2-0.3,0.3-0.5c0.4-0.6,0.8-1.3,1.1-1.9c0.3-0.6,0.6-1.3,0.9-1.9c0.1-0.3,0.3-0.6,0.4-0.9c0.1-0.3,0.2-0.6,0.3-0.8
					c0.1-0.3,0.2-0.6,0.3-0.8c0.1-0.2,0.2-0.5,0.3-0.7c0.1-0.2,0.2-0.5,0.2-0.6c0-0.2,0.1-0.4,0.1-0.5c0-0.2,0.1-0.5,0.2-0.8
					c0-0.1,0.1-0.2,0.1-0.3c0,0.1,0,0.2-0.1,0.3c0,0.1-0.1,0.2-0.1,0.3c0,0.1-0.1,0.2-0.1,0.4c0,0.2-0.1,0.4-0.1,0.5
					c0,0.2-0.1,0.4-0.2,0.6c-0.1,0.2-0.2,0.5-0.3,0.8c-0.1,0.3-0.2,0.5-0.3,0.8c-0.1,0.2-0.2,0.5-0.3,0.8c-0.1,0.3-0.3,0.6-0.4,0.9
					c-0.1,0.3-0.3,0.6-0.4,0.9s-0.3,0.6-0.5,1c-0.3,0.7-0.6,1.3-1.1,1.9c-0.1,0.2-0.2,0.4-0.3,0.5c-0.1,0.1-0.2,0.3-0.3,0.5
					l-0.6,0.9c-0.1,0.2-0.2,0.4-0.3,0.5c-0.1,0.1-0.2,0.3-0.3,0.4c-0.1,0.2-0.3,0.4-0.4,0.5c-0.1,0.1-0.2,0.3-0.3,0.4
					c-0.2,0.3-0.5,0.6-0.7,0.9c-0.2,0.3-0.5,0.6-0.7,0.9c-0.2,0.2-0.5,0.5-0.7,0.8c-0.2,0.3-0.5,0.5-0.7,0.8
					c-0.2,0.2-0.5,0.5-0.7,0.6c-0.2,0.2-0.4,0.4-0.7,0.6c-0.4,0.4-0.8,0.7-1.2,1c-0.4,0.3-0.7,0.6-1,0.8c-0.2,0.1-0.4,0.3-0.6,0.5
					l-0.2,0.2l0.9-0.6c0.1-0.1,0.3-0.2,0.4-0.3c0.1-0.1,0.3-0.3,0.5-0.5c0.2-0.1,0.4-0.3,0.6-0.4c0.2-0.1,0.4-0.3,0.6-0.6
					c0.2-0.2,0.5-0.4,0.7-0.6c0.2-0.2,0.5-0.4,0.7-0.6c0.2-0.2,0.5-0.5,0.7-0.8c0.2-0.3,0.5-0.5,0.7-0.8c0.2-0.3,0.5-0.6,0.8-0.8
					c0.3-0.3,0.5-0.6,0.8-0.9c0.3-0.4,0.5-0.7,0.7-0.9c0.1-0.2,0.2-0.4,0.3-0.5c0.1-0.1,0.2-0.3,0.3-0.5L400.5,359.9z M398.3,364.1
					c0.1-0.2,0.3-0.4,0.5-0.7c0.1-0.1,0.2-0.2,0.2-0.3l-0.9,0.9c-0.2,0.2-0.5,0.5-0.9,0.9c-0.3,0.4-0.7,0.7-1,1l-1,1
					c-0.1,0.1-0.3,0.3-0.5,0.4c-0.2,0.1-0.3,0.3-0.4,0.4c-0.2,0.1-0.4,0.3-0.6,0.6c-0.1,0.1-0.2,0.1-0.2,0.1l-0.1,0.1
					c0,0,0.1-0.1,0.3-0.2c0.1-0.1,0.2-0.2,0.3-0.2c0.1-0.1,0.3-0.2,0.4-0.3c0.1-0.1,0.3-0.2,0.5-0.4c0.2-0.1,0.3-0.3,0.5-0.4
					c0.1-0.1,0.3-0.3,0.5-0.5c0.2-0.2,0.3-0.3,0.5-0.5c0.3-0.4,0.7-0.7,1-1.1C397.8,364.7,398,364.4,398.3,364.1z"/>
				<path class="st2" d="M457.8,350.1c0.2-0.4,0.7-0.6,1.3-0.5c0.6,0.1,1.2,0.4,1.8,0.9c0.6,0.5,1,1,1.3,1.7c0.3,0.7,0.3,1.4,0,2.1
					c-1.6,3.1-3.6,6.4-6.1,9.8c-2.5,3.5-5.1,6.9-7.8,10.5c-2.7,3.5-5.5,7-8.2,10.5c-2.8,3.5-5.2,6.8-7.4,9.9
					c-2.2,3.1-3.9,6.1-5.2,8.7c-1.3,2.7-1.8,5-1.7,7c0,0.8-0.3,1.1-0.9,0.9c-0.7-0.2-1.4-0.6-2.3-1.2c-0.8-0.6-1.6-1.3-2.4-2
					c-0.7-0.7-1.1-1.3-1.1-1.7c0-0.5,0.1-1.5,0.5-3s0.9-3.4,1.6-5.6c0.7-2.2,1.5-4.8,2.4-7.6c0.9-2.8,2-5.8,3.1-9
					c1.1-3.1,2.3-6.4,3.6-9.6c1.2-3.3,2.5-6.5,3.8-9.7c-1.5,1.6-3,3.2-4.5,4.7c-1.4,1.5-2.8,2.8-4,4c-1.2,1.2-2.2,2.1-3.1,2.7
					c-0.8,0.7-1.4,1-1.7,1c-0.7,0-1.5-0.2-2.4-0.7c-0.9-0.5-1.7-1.1-2.6-1.7c-0.8-0.7-1.5-1.4-2.1-2.2c-0.6-0.8-0.9-1.5-0.9-2
					c-0.1-1.2,0.2-2.9,0.8-5c0.6-2.1,1.5-4.4,2.6-6.9c1.1-2.5,2.3-5,3.6-7.5c1.3-2.6,2.6-4.9,3.8-7c1.2-2.1,2.3-3.8,3.3-5.1
					c1-1.3,1.7-2,2-2c0.5,0,1,0.2,1.4,0.6c0.5,0.4,0.9,0.9,1.3,1.5c0.4,0.6,0.8,1.1,1,1.7c0.3,0.6,0.4,1,0.4,1.3c0,0.2-0.3,0.9-1,2
					c-0.6,1.2-1.5,2.6-2.4,4.3c-1,1.7-2,3.6-3.2,5.6c-1.1,2-2.2,4-3.1,6c-1,1.9-1.8,3.7-2.4,5.3c-0.6,1.6-0.9,2.8-0.8,3.6
					c0.2,0,0.8-0.5,1.7-1.5c0.9-1,2.1-2.3,3.5-3.9c1.4-1.6,2.9-3.4,4.7-5.4c1.7-2,3.5-4.1,5.2-6.1c1.7-2.1,3.4-4,5-5.9
					c1.6-1.9,3-3.5,4.3-4.8c0.8-1.4,1.5-2.5,2.2-3.2c0.6-0.8,1.2-1.1,1.6-1.1c0.4,0,1,0.2,1.7,0.6c0.7,0.4,1.3,0.9,1.9,1.4
					c0.6,0.6,1.1,1.1,1.4,1.7c0.4,0.6,0.4,1.1,0.3,1.4c-0.8,0.9-1.7,2.2-2.8,4c-1.1,1.8-2.3,3.9-3.6,6.4c-1.3,2.4-2.6,5-4,7.9
					s-2.7,5.7-3.9,8.6c-1.2,2.9-2.3,5.7-3.3,8.5c-1,2.8-1.8,5.3-2.4,7.6c1.5-1.9,3.2-3.8,5.1-5.9c1.9-2.1,3.9-4.4,5.9-7
					c2.1-2.6,4.2-5.4,6.4-8.6C453.5,357.7,455.7,354.1,457.8,350.1z M417.3,356.7c0-0.1,0.1-0.2,0.1-0.2c0,0,0-0.1,0.1-0.1
					c0,0,0-0.1,0.1-0.1c0,0,0,0.1-0.1,0.1C417.4,356.4,417.3,356.5,417.3,356.7c-0.2,0.1-0.3,0.3-0.4,0.5c-0.1,0.2-0.2,0.5-0.3,0.8
					c-0.1,0.2-0.2,0.5-0.4,0.8s-0.3,0.6-0.4,1c-0.1,0.4-0.3,0.8-0.4,1.1c-0.1,0.4-0.3,0.7-0.4,1.1c0,0.2-0.1,0.4-0.1,0.6
					c0,0.2-0.1,0.4-0.1,0.6c0,0.2-0.1,0.4-0.1,0.5c0,0.2-0.1,0.3-0.1,0.5c-0.1,0.4-0.2,0.7-0.2,1.1c0,0.3-0.1,0.6-0.1,0.9v1.4
					l0.1,0.4v0.1v-0.1c0,0,0-0.1,0-0.2c0-0.1,0-0.2,0-0.3c0-0.1,0-0.3,0-0.6s0-0.5,0.1-0.8c0-0.3,0.1-0.6,0.1-0.9
					c0-0.3,0.1-0.7,0.2-1.1l0.2-1.1c0.1-0.2,0.2-0.4,0.2-0.6c0-0.2,0.1-0.4,0.2-0.6c0.1-0.4,0.2-0.8,0.4-1.1c0.1-0.4,0.3-0.7,0.4-1
					c0.1-0.4,0.3-0.7,0.4-1c0.1-0.3,0.2-0.6,0.3-0.9c0.1-0.2,0.2-0.5,0.3-0.7C417.1,357.1,417.2,356.9,417.3,356.7z M418.9,355.4
					c0.2-0.4,0.4-0.8,0.6-1.3c0.2-0.5,0.5-1,0.7-1.5c0.2-0.5,0.5-1.1,0.8-1.6c0.3-0.5,0.6-1.1,0.8-1.6c0.3-0.5,0.6-1.1,0.9-1.6
					c0.3-0.5,0.6-1.1,0.9-1.6c0.2-0.5,0.5-1,0.7-1.5c0.2-0.5,0.5-0.9,0.7-1.3c0.4-0.8,0.8-1.4,1.1-1.9c0.2-0.2,0.3-0.5,0.4-0.7
					l-0.1,0.1c0,0.1-0.1,0.2-0.1,0.3c0,0.1-0.1,0.2-0.2,0.3c-0.1,0.2-0.3,0.5-0.5,0.8c-0.2,0.3-0.4,0.7-0.7,1
					c-0.5,0.7-1,1.6-1.7,2.7l-0.9,1.5c-0.1,0.2-0.3,0.5-0.4,0.8c-0.1,0.3-0.3,0.6-0.4,0.8c-0.3,0.5-0.6,1.1-0.8,1.6
					c-0.3,0.6-0.5,1.1-0.8,1.6c-0.1,0.2-0.3,0.5-0.4,0.8c-0.1,0.3-0.2,0.5-0.3,0.8c-0.1,0.2-0.2,0.5-0.3,0.7
					c-0.1,0.2-0.2,0.4-0.3,0.7c-0.2,0.4-0.3,0.8-0.5,1.2c-0.1,0.4-0.2,0.7-0.3,0.9c0,0.1-0.1,0.3-0.1,0.3c0,0.1,0,0.2,0,0.3
					c0,0.1-0.1,0.2-0.1,0.2c0.1-0.2,0.2-0.4,0.4-0.7c0.1-0.2,0.2-0.5,0.4-0.9C418.5,356.3,418.7,355.9,418.9,355.4z M418.6,353.2
					c-0.1,0.2-0.2,0.4-0.2,0.6c0,0.2-0.1,0.3-0.1,0.4c0,0.1-0.1,0.3-0.1,0.4c0-0.1,0.1-0.2,0.2-0.4c0.1-0.1,0.2-0.2,0.2-0.4
					c0-0.1,0.1-0.3,0.2-0.6c0.1-0.2,0.2-0.4,0.3-0.6c0.1-0.2,0.2-0.4,0.3-0.7s0.2-0.5,0.4-0.8c0.1-0.3,0.3-0.5,0.4-0.8
					c0.2-0.5,0.5-1,0.7-1.5s0.5-0.9,0.6-1.3c0.2-0.5,0.4-0.9,0.6-1.3c0,0.1-0.1,0.2-0.2,0.4c-0.1,0.1-0.2,0.2-0.3,0.4
					c-0.1,0.2-0.2,0.3-0.3,0.5c-0.1,0.2-0.2,0.4-0.4,0.6c-0.1,0.2-0.3,0.4-0.4,0.7c-0.1,0.2-0.2,0.5-0.4,0.8
					c-0.1,0.3-0.3,0.5-0.4,0.8c-0.1,0.2-0.3,0.5-0.4,0.8c-0.1,0.3-0.2,0.5-0.3,0.8c-0.1,0.2-0.2,0.5-0.3,0.7
					C418.8,352.8,418.7,353,418.6,353.2z M425.8,395.3c0.1-0.8,0.3-1.4,0.4-1.8c0.1-0.2,0.2-0.5,0.2-0.7c0,0.2-0.1,0.5-0.2,0.7
					c-0.1,0.2-0.2,0.5-0.3,0.8c-0.1,0.3-0.2,0.6-0.3,1c-0.1,0.4-0.2,0.8-0.4,1.2c-0.1,0.4-0.3,0.9-0.4,1.3c-0.1,0.5-0.3,0.9-0.4,1.4
					c-0.1,0.5-0.3,0.9-0.4,1.5c-0.1,0.5-0.3,1-0.4,1.5c-0.1,0.5-0.3,1-0.4,1.4c-0.1,0.5-0.2,0.9-0.3,1.4c-0.1,0.4-0.2,0.8-0.3,1.2
					c-0.1,0.7-0.2,1.3-0.2,1.9c0,0.1,0,0.2,0,0.3c0,0.1,0,0.2,0,0.3l0.1,0.1l-0.1-0.1V408c0-0.2,0-0.5,0.1-0.8c0-0.3,0.1-0.7,0.2-1
					c0.1-0.8,0.4-1.6,0.6-2.5c0.1-0.5,0.2-1,0.4-1.4c0.1-0.5,0.3-1,0.4-1.5c0.1-0.5,0.3-1,0.4-1.5c0.1-0.5,0.3-0.9,0.4-1.4
					c0.1-0.5,0.3-0.9,0.4-1.3C425.6,396.1,425.7,395.7,425.8,395.3z M429.5,363.2c0.3-0.3,0.6-0.7,0.9-1c0.3-0.4,0.6-0.7,0.8-1
					c0.3-0.3,0.6-0.7,0.8-1c0.2-0.3,0.5-0.6,0.7-0.9c0.2-0.3,0.4-0.5,0.6-0.8c0.2-0.2,0.3-0.4,0.4-0.6c0.1-0.2,0.3-0.4,0.4-0.6
					c-0.1,0.1-0.2,0.3-0.4,0.5c-0.1,0.1-0.3,0.3-0.5,0.6c-0.2,0.2-0.4,0.5-0.6,0.7c-0.4,0.5-0.9,1.1-1.5,1.8
					c-0.6,0.7-1.2,1.4-1.8,2.1c-0.3,0.4-0.7,0.7-1,1.1c-0.3,0.3-0.6,0.7-0.9,1c-0.3,0.3-0.6,0.6-0.9,0.9s-0.6,0.6-0.8,0.8
					c-0.2,0.2-0.5,0.5-0.6,0.7c-0.2,0.2-0.4,0.4-0.6,0.5l-0.4,0.4c0,0,0.1,0,0.1-0.1c0,0,0.1-0.1,0.1-0.1c0,0,0.1-0.1,0.2-0.2
					c0.1-0.1,0.3-0.2,0.6-0.4c0.2-0.2,0.5-0.4,0.7-0.6l1.7-1.7c0.3-0.3,0.6-0.7,0.9-1C428.8,363.9,429.2,363.6,429.5,363.2z
					 M431.6,371.3c0.2-0.6,0.5-1.2,0.6-1.8c0.2-0.6,0.4-1.1,0.6-1.6l1.1-3.2c-0.1,0.2-0.2,0.5-0.4,0.9c-0.1,0.3-0.2,0.6-0.4,1
					c-0.1,0.4-0.3,0.9-0.5,1.3c-0.2,0.5-0.4,1-0.6,1.5c-0.2,0.6-0.4,1.1-0.7,1.8c-0.2,0.6-0.5,1.2-0.7,1.9c-0.2,0.6-0.4,1.3-0.7,1.9
					c-0.2,0.7-0.5,1.3-0.7,1.9c-0.2,0.6-0.4,1.3-0.7,1.9c-0.2,0.6-0.4,1.2-0.6,1.8c-0.2,0.6-0.3,1.1-0.5,1.5c-0.2,0.5-0.3,1-0.5,1.4
					c-0.1,0.4-0.2,0.8-0.3,1c-0.1,0.3-0.2,0.6-0.3,0.9c0,0,0-0.1,0.1-0.2c0-0.1,0.1-0.2,0.1-0.3c0-0.1,0.1-0.2,0.2-0.4
					c0.2-0.6,0.5-1.4,0.9-2.4c0.4-1,0.8-2.1,1.2-3.3c0.4-1.2,0.9-2.5,1.4-3.9c0.2-0.7,0.5-1.3,0.7-1.9
					C431.2,372.6,431.4,372,431.6,371.3z M431.8,361.2c0.2-0.2,0.4-0.5,0.6-0.7c0.2-0.2,0.5-0.5,0.8-0.8c0.3-0.3,0.6-0.7,1-1
					c0.4-0.4,0.8-0.8,1.2-1.2c0.4-0.4,0.8-0.9,1.3-1.4v-0.1c0.1-0.2,0.2-0.5,0.4-0.8c0.1-0.3,0.3-0.5,0.4-0.8l-1.1,1.3
					c-0.4,0.5-0.8,1-1.2,1.5c-0.4,0.5-0.7,0.9-1.1,1.3c-0.3,0.4-0.6,0.8-0.9,1.2c-0.3,0.3-0.5,0.6-0.7,0.9c-0.1,0.1-0.2,0.3-0.3,0.3
					c-0.1,0.1-0.2,0.2-0.2,0.3C431.8,361.1,431.8,361.1,431.8,361.2z M449,365.5c0.2-0.3,0.3-0.5,0.4-0.6c0-0.1,0.1-0.2,0.1-0.2
					l-0.1-0.1c0,0-0.1,0.1-0.1,0.2c-0.1,0.2-0.2,0.4-0.4,0.6c-0.1,0.2-0.3,0.5-0.6,0.8c-0.3,0.3-0.5,0.7-0.8,1
					c-0.7,0.8-1.4,1.7-2.2,2.7c-0.8,1-1.7,2-2.6,3.1c-0.9,1-1.7,2-2.6,2.9c-0.9,1-1.6,1.8-2.3,2.6c-0.7,0.8-1.2,1.5-1.5,1.9
					c-0.2,0.2-0.3,0.4-0.4,0.6c0,0-0.1,0.1-0.1,0.1s0,0.1-0.1,0.1h0.1c0,0,0.1-0.1,0.1-0.2c0-0.1,0.2-0.3,0.4-0.5
					c0.1-0.1,0.2-0.2,0.3-0.4c0.1-0.1,0.3-0.3,0.4-0.4c0.1-0.1,0.3-0.3,0.5-0.4c0.2-0.1,0.3-0.3,0.5-0.6c0.3-0.4,0.7-0.8,1.1-1.2
					c0.4-0.4,0.8-0.8,1.3-1.3c0.4-0.5,0.9-1,1.3-1.4c0.4-0.5,0.9-1,1.4-1.5c0.4-0.5,0.9-1,1.3-1.5c0.4-0.5,0.8-1,1.2-1.5
					c0.2-0.2,0.4-0.5,0.6-0.7c0.2-0.2,0.3-0.5,0.5-0.7c0.1-0.2,0.3-0.5,0.5-0.7c0.2-0.2,0.3-0.4,0.5-0.7c0.3-0.4,0.6-0.8,0.8-1.1
					C448.6,366,448.8,365.7,449,365.5z"/>
			</g>
		</g>
	</g>
</g>
</svg>
